# Aspose.3D Wavefront OBJ Exporter
# Copyright 2004-2023 Aspose Pty Ltd.
# File created: 12/20/2023 09:11:14

mtllib material.lib
g pPlane1

#
# object pPlane1
#

v -0.115230024 0.009495971 1.230374E-16
v 0.10279785 0.009495971 1.230374E-16
v -0.11171041 0.41136658 9.8429914E-17
v 0.09927821 0.41136658 9.8429914E-17
v -0.103450194 0.7611989 7.700887E-17
v 0.09101802 0.7611989 7.700887E-17
v -0.08990365 1.070201 5.808794E-17
v 0.0774715 1.070201 5.808794E-17
v -0.0765202 1.3602939 4.0324873E-17
v 0.06398669 1.3602939 4.0324873E-17
v -0.057598893 1.5948186 -1.1920929E-07
v 0.04721773 1.5948186 -1.1920929E-07
v -0.03721229 1.7773782 -5.9604645E-08
v 0.026775906 1.7773782 -5.9604645E-08
v -0.0053833867 1.9575927 -4.3213367E-07
# 15 vertices

vn 0 2.220446E-16 1
vn 0 2.220446E-16 1
vn 0 2.220446E-16 1
vn 0 2.220446E-16 1
vn 0 2.220446E-16 1
vn 0 2.220446E-16 1
vn 0 2.220446E-16 1
vn 0 2.220446E-16 1
vn 0 7.451335E-07 1
vn 0 7.4911617E-07 1
vn 0 1.0012001E-06 1
vn 0 9.959462E-07 1
vn 0 8.374778E-07 1
vn 0 8.3402784E-07 1
vn 0 8.307242E-06 1
# 15 vertex normals

vt 0.4 0 0
vt 0.5 0 0
vt 0.4 0.1 0
vt 0.5 0.1 0
vt 0.4 0.2 0
vt 0.5 0.2 0
vt 0.4 0.3 0
vt 0.5 0.3 0
vt 0.4 0.4 0
vt 0.5 0.4 0
vt 0.4 0.5 0
vt 0.5 0.5 0
vt 0.4 0.6 0
vt 0.5 0.6 0
vt 0.45 0.7 0
# 15 texture coords

usemtl lambert1
s 1
f 1/1/1 2/2/2 4/4/4 3/3/3
f 3/3/3 4/4/4 6/6/6 5/5/5
f 5/5/5 6/6/6 8/8/8 7/7/7
f 7/7/7 8/8/8 10/10/10 9/9/9
f 9/9/9 10/10/10 12/12/12 11/11/11
f 11/11/11 12/12/12 14/14/14 13/13/13
f 13/13/13 14/14/14 15/15/15
#7 polygons

